<?xml version="1.0" encoding="UTF-8" standalone="no"?>
<!-- Created with Inkscape (http://www.inkscape.org/) -->

<svg
   width="2.8250003mm"
   height="10.000001mm"
   viewBox="0 0 2.8250003 10.000001"
   version="1.1"
   id="svg328"
   xml:space="preserve"
   sodipodi:docname="half_note_icon.svg"
   inkscape:version="1.2.1 (9c6d41e410, 2022-07-14)"
   xmlns:inkscape="http://www.inkscape.org/namespaces/inkscape"
   xmlns:sodipodi="http://sodipodi.sourceforge.net/DTD/sodipodi-0.dtd"
   xmlns="http://www.w3.org/2000/svg"
   xmlns:svg="http://www.w3.org/2000/svg"><sodipodi:namedview
     id="namedview330"
     pagecolor="#ffffff"
     bordercolor="#000000"
     borderopacity="0.25"
     inkscape:showpageshadow="2"
     inkscape:pageopacity="0.0"
     inkscape:pagecheckerboard="0"
     inkscape:deskcolor="#d1d1d1"
     inkscape:document-units="mm"
     showgrid="false"
     inkscape:zoom="15.996081"
     inkscape:cx="14.472295"
     inkscape:cy="22.818089"
     inkscape:window-width="1920"
     inkscape:window-height="1009"
     inkscape:window-x="-8"
     inkscape:window-y="1016"
     inkscape:window-maximized="1"
     inkscape:current-layer="layer1" /><defs
     id="defs325" /><g
     inkscape:label="Layer 1"
     inkscape:groupmode="layer"
     id="layer1"
     transform="translate(-3.5874969)"><path
       id="rect453"
       style="stroke-width:0.249994"
       d="M 6.2388957,0 C 6.1431282,0 6.0657796,0.07734863 6.0657796,0.17311605 V 7.7271769 a 1.1397439,1.5028279 58.400283 0 1 0.3276286,0.5255493 1.1397439,1.5028279 58.400283 0 1 0.018604,0.1725993 V 0.17311605 C 6.4120117,0.07734863 6.3351803,0 6.2394124,0 Z" /><path
       d="M 5.2898709,7.5009339 A 1.1397708,1.5028444 58.401 0 0 4.7692226,7.6031635 1.1397708,1.5028444 58.401 0 0 3.606477,9.2472324 1.1397708,1.5028444 58.401 0 0 5.2307709,9.8968549 1.1397708,1.5028444 58.401 0 0 6.3935169,8.2527861 1.1397708,1.5028444 58.401 0 0 5.2898709,7.5009139 Z m 0.150412,0.3132488 a 0.81927195,1.3694199 65.65 0 1 0.811572,0.4783982 0.81927195,1.3694199 65.65 0 1 1.88e-4,0.00225 0.74567223,1.33807 66.569 0 1 0.002,0.0076 0.74567223,1.33807 66.569 0 1 0.0055,0.1398545 A 0.81927195,1.3694199 65.65 0 1 5.134004,9.5664062 0.81927195,1.3694199 65.65 0 1 3.6876844,9.2073575 0.81927195,1.3694199 65.65 0 1 4.8054303,7.9334373 0.81927195,1.3694199 65.65 0 1 5.4401779,7.8140802 Z"
       id="path292"
       style="stroke-width:0.249999" /></g></svg>
