<?xml version="1.0" encoding="UTF-8" standalone="no"?>
<!-- Created with Inkscape (http://www.inkscape.org/) -->

<svg
   width="10mm"
   height="10.000001mm"
   viewBox="0 0 10 10.000001"
   version="1.1"
   id="svg5"
   xml:space="preserve"
   xmlns:inkscape="http://www.inkscape.org/namespaces/inkscape"
   xmlns:sodipodi="http://sodipodi.sourceforge.net/DTD/sodipodi-0.dtd"
   xmlns="http://www.w3.org/2000/svg"
   xmlns:svg="http://www.w3.org/2000/svg"><sodipodi:namedview
     id="namedview7"
     pagecolor="#ffffff"
     bordercolor="#000000"
     borderopacity="0.25"
     inkscape:showpageshadow="2"
     inkscape:pageopacity="0.0"
     inkscape:pagecheckerboard="0"
     inkscape:deskcolor="#d1d1d1"
     inkscape:document-units="mm"
     showgrid="false" /><defs
     id="defs2" /><g
     inkscape:label="Layer 1"
     inkscape:groupmode="layer"
     id="layer1"
     transform="translate(0,-266.24196)"><path
       d="m 4.4310819,266.24662 1.9441422,1.99294 c 0,0 0.2826447,0.2103 0.2590802,0.49307 -0.023571,0.28277 -0.5419721,0.88364 -0.5419721,0.88364 0,0 -0.4830607,0.61265 -0.6008836,0.95435 l -0.1178228,0.34167 c 0,0 -0.2695556,0.67 -0.09497,0.85448 0.1620909,0.14281 0.6494562,1.20319 0.6494562,1.20319 l 0.8593525,1.2177 c 0,0 -3.365299,-0.41192 -1.879216,1.80854 0.6517646,0.97392 -1.4138417,-1.29602 -1.4138417,-1.29602 0,0 -0.4359186,-1.07218 -0.2297481,-1.14874 0.1296019,-0.16495 0.4822154,-0.49197 0.4822154,-0.49197 0,0 0.278233,-0.23599 0.6146686,-0.31348 0.2198157,-0.11081 0.823557,0.14568 0.823557,0.14568 0,0 -0.6362239,-0.63623 -1.0368021,-1.30779 -0.4005782,-0.67157 -0.6951353,-0.78689 -0.3534685,-1.46095 0.1971647,-0.38898 0.9703154,-1.89899 0.9703154,-1.89899 0,0 0.266597,-0.76646 0.05832,-0.94973 -0.124969,-0.15829 -0.3924177,-1.02754 -0.3924177,-1.02754 z"
       stroke="#000000"
       stroke-width="0.00583165px"
       id="path134" /></g></svg>
