<?xml version="1.0" encoding="UTF-8" standalone="no"?>
<!-- Created with Inkscape (http://www.inkscape.org/) -->

<svg
   width="10mm"
   height="10mm"
   viewBox="0 0 10 10"
   version="1.1"
   id="svg5"
   inkscape:version="1.2.1 (9c6d41e410, 2022-07-14)"
   sodipodi:docname="transpose_icon.svg"
   xmlns:inkscape="http://www.inkscape.org/namespaces/inkscape"
   xmlns:sodipodi="http://sodipodi.sourceforge.net/DTD/sodipodi-0.dtd"
   xmlns="http://www.w3.org/2000/svg"
   xmlns:svg="http://www.w3.org/2000/svg">
  <sodipodi:namedview
     id="namedview7"
     pagecolor="#ffffff"
     bordercolor="#000000"
     borderopacity="0.25"
     inkscape:showpageshadow="2"
     inkscape:pageopacity="0.0"
     inkscape:pagecheckerboard="0"
     inkscape:deskcolor="#d1d1d1"
     inkscape:document-units="mm"
     showgrid="false"
     inkscape:zoom="8.6174175"
     inkscape:cx="-28.836946"
     inkscape:cy="27.850571"
     inkscape:window-width="1920"
     inkscape:window-height="1009"
     inkscape:window-x="-8"
     inkscape:window-y="1016"
     inkscape:window-maximized="1"
     inkscape:current-layer="layer1">
    <inkscape:grid
       type="xygrid"
       id="grid1997" />
  </sodipodi:namedview>
  <defs
     id="defs2" />
  <g
     inkscape:label="Layer 1"
     inkscape:groupmode="layer"
     id="layer1">
    <g
       id="g2023"
       transform="matrix(1.1364486,0,0,1.1364486,-0.6528584,-0.68224653)">
      <path
         style="fill:#000000;fill-opacity:1;stroke:none;stroke-width:0.0659975px;stroke-linecap:butt;stroke-linejoin:miter;stroke-opacity:1"
         d="m 0.84258685,1.9109121 c -0.1913071,0.017611 -0.26811439,0.2862811 -0.26811439,0.2862811 0,0 0.11239219,5.600123 0.11665759,5.7834104 0.00416,0.1791694 0.062919,0.1199582 0.2791995,-0.045762 C 1.1866131,7.7691291 1.4702774,7.6056322 1.8994471,7.2722946 2.3286167,6.9389545 2.7053567,6.3808998 2.7411737,6.2639005 2.7909867,6.101164 2.887058,5.6127427 2.5077337,5.0972173 2.1284071,4.581687 1.5905045,4.838806 1.3910631,4.9305473 1.2965084,4.9740417 1.0078402,5.1806122 1.0078402,5.1806122 l 0.06561,-3.184372 C 0.98284635,1.9270683 0.90635585,1.9050304 0.84258685,1.9109121 Z M 1.6834105,5.3215028 C 2.0322633,5.3282128 2.2019042,5.5808469 2.0870002,6.2408274 1.9720936,6.9008003 1.0145426,7.2808008 1.0145426,7.2808008 l -0.00297,-1.4730817 c 0,0 0.3229784,-0.4929261 0.6718337,-0.4862163 z"
         id="path862"
         inkscape:connector-curvature="0" />
      <g
         id="g890"
         transform="matrix(0.2494389,0,0,0.2494389,2.1221732,-109.20102)">
        <rect
           ry="0.23623513"
           rx="0.23623513"
           y="445.26672"
           x="21.26116"
           height="26.5"
           width="1.25"
           id="rect837"
           style="opacity:0.99;fill:#000000;fill-opacity:1;fill-rule:nonzero;stroke:none;stroke-width:0.262761;stroke-linecap:round;stroke-linejoin:round;stroke-miterlimit:4;stroke-dasharray:none;stroke-dashoffset:0;stroke-opacity:1" />
        <rect
           rx="0.23623513"
           ry="0.23623513"
           y="443.89658"
           x="26.033112"
           height="26.5"
           width="1.25"
           id="rect839"
           style="opacity:0.99;fill:#000000;fill-opacity:1;fill-rule:nonzero;stroke:none;stroke-width:0.266106;stroke-linecap:round;stroke-linejoin:round;stroke-miterlimit:4;stroke-dasharray:none;stroke-dashoffset:0;stroke-opacity:1" />
        <path
           sodipodi:nodetypes="sssscssss"
           inkscape:connector-curvature="0"
           id="rect859"
           d="m 19.636232,452.85157 9.199346,-3.54132 c 0.122137,-0.047 0.236235,0.10257 0.236235,0.23 v 3.4822 c 0,0.12743 -0.236235,0.23 -0.236235,0.23 l -9.182641,3.59144 c -0.121888,0.0477 -0.235633,-0.10259 -0.236235,-0.23 l -0.0167,-3.53232 c -6.02e-4,-0.12742 0.114098,-0.18299 0.236235,-0.23 z"
           style="opacity:0.99;fill:#000000;fill-opacity:1;fill-rule:nonzero;stroke:none;stroke-width:0.265;stroke-linecap:round;stroke-linejoin:round;stroke-miterlimit:4;stroke-dasharray:none;stroke-dashoffset:0;stroke-opacity:1" />
        <path
           sodipodi:nodetypes="sssscssss"
           inkscape:connector-curvature="0"
           id="rect859-6"
           d="m 19.636232,462.26031 9.199347,-3.54132 c 0.122137,-0.047 0.236235,0.10257 0.236235,0.23 v 3.4822 c 0,0.12743 -0.236235,0.23 -0.236235,0.23 l -9.182642,3.59144 c -0.121888,0.0477 -0.235633,-0.10259 -0.236235,-0.23 l -0.0167,-3.53232 c -6.02e-4,-0.12742 0.114098,-0.18299 0.236235,-0.23 z"
           style="opacity:0.99;fill:#000000;fill-opacity:1;fill-rule:nonzero;stroke:none;stroke-width:0.265;stroke-linecap:round;stroke-linejoin:round;stroke-miterlimit:4;stroke-dasharray:none;stroke-dashoffset:0;stroke-opacity:1" />
      </g>
      <path
         id="rect678"
         style="fill:#000000;stroke-width:1.17036;stroke-linejoin:round"
         d="M 5.1313516,3.5858276 4.7070881,4.0100911 5.3964517,4.6999715 H 3.2058878 V 5.2999349 H 5.3969685 L 4.7070881,5.9898153 5.1313516,6.4140788 6.1209553,5.4244751 6.5452188,5.0002116 6.1209553,4.5759481 Z" />
    </g>
  </g>
</svg>
