<?xml version="1.0" encoding="UTF-8" standalone="no"?>
<!-- Created with Inkscape (http://www.inkscape.org/) -->

<svg
   width="10mm"
   height="10mm"
   viewBox="0 0 10 10"
   version="1.1"
   id="svg5"
   inkscape:version="1.2.1 (9c6d41e410, 2022-07-14)"
   sodipodi:docname="volume_full_icon.svg"
   xmlns:inkscape="http://www.inkscape.org/namespaces/inkscape"
   xmlns:sodipodi="http://sodipodi.sourceforge.net/DTD/sodipodi-0.dtd"
   xmlns="http://www.w3.org/2000/svg"
   xmlns:svg="http://www.w3.org/2000/svg">
  <sodipodi:namedview
     id="namedview7"
     pagecolor="#ffffff"
     bordercolor="#000000"
     borderopacity="0.25"
     inkscape:showpageshadow="2"
     inkscape:pageopacity="0.0"
     inkscape:pagecheckerboard="0"
     inkscape:deskcolor="#d1d1d1"
     inkscape:document-units="mm"
     showgrid="false"
     inkscape:zoom="12.186869"
     inkscape:cx="8.5748032"
     inkscape:cy="15.262329"
     inkscape:window-width="1920"
     inkscape:window-height="1009"
     inkscape:window-x="-8"
     inkscape:window-y="1016"
     inkscape:window-maximized="1"
     inkscape:current-layer="layer1" />
  <defs
     id="defs2">
    <inkscape:path-effect
       effect="fillet_chamfer"
       id="path-effect3582"
       is_visible="true"
       lpeversion="1"
       nodesatellites_param="F,0,0,1,0,0.13229167,0,1 @ F,0,0,1,0,0.13229167,0,1 @ F,0,0,1,0,0.13229167,0,1 @ F,0,0,1,0,0.13229167,0,1 @ F,0,0,1,0,0.13229167,0,1 @ F,0,0,1,0,0.13229167,0,1"
       unit="px"
       method="auto"
       mode="F"
       radius="0.5"
       chamfer_steps="1"
       flexible="false"
       use_knot_distance="true"
       apply_no_radius="true"
       apply_with_radius="true"
       only_selected="false"
       hide_knots="false" />
    <inkscape:path-effect
       effect="fillet_chamfer"
       id="path-effect3580"
       is_visible="true"
       lpeversion="1"
       nodesatellites_param="F,0,0,1,0,0.13229167,0,1 @ F,0,0,1,0,0.13229167,0,1 @ F,0,0,1,0,0.13229167,0,1 @ F,0,0,1,0,0.13229167,0,1 @ F,0,0,1,0,0.13229167,0,1 @ F,0,0,1,0,0.13229167,0,1"
       unit="px"
       method="auto"
       mode="F"
       radius="0.5"
       chamfer_steps="1"
       flexible="false"
       use_knot_distance="true"
       apply_no_radius="true"
       apply_with_radius="true"
       only_selected="false"
       hide_knots="false" />
    <inkscape:path-effect
       effect="fillet_chamfer"
       id="path-effect3525"
       is_visible="true"
       lpeversion="1"
       nodesatellites_param="F,0,0,1,0,0.13229167,0,1 @ F,0,0,1,0,0.13229167,0,1 @ F,0,0,1,0,0.13229167,0,1 @ F,0,0,1,0,0.13229167,0,1 @ F,0,0,1,0,0.13229167,0,1 @ F,0,0,1,0,0.13229167,0,1"
       unit="px"
       method="auto"
       mode="F"
       radius="0.5"
       chamfer_steps="1"
       flexible="false"
       use_knot_distance="true"
       apply_no_radius="true"
       apply_with_radius="true"
       only_selected="false"
       hide_knots="false" />
    <inkscape:path-effect
       effect="fillet_chamfer"
       id="path-effect3347"
       is_visible="true"
       lpeversion="1"
       nodesatellites_param="F,0,0,1,0,0.13229167,0,1 @ F,0,0,1,0,0.13229167,0,1 @ F,0,0,1,0,0.13229167,0,1 @ F,0,0,1,0,0.13229167,0,1 @ F,0,0,1,0,0.13229167,0,1 @ F,0,0,1,0,0.13229167,0,1"
       unit="px"
       method="auto"
       mode="F"
       radius="0.5"
       chamfer_steps="1"
       flexible="false"
       use_knot_distance="true"
       apply_no_radius="true"
       apply_with_radius="true"
       only_selected="false"
       hide_knots="false" />
  </defs>
  <g
     inkscape:label="Layer 1"
     inkscape:groupmode="layer"
     id="layer1">
    <g
       id="g3588"
       transform="matrix(1.346855,0,0,1.346855,0.09127261,-1.734275)">
      <path
         id="rect1514"
         style="fill:#000000;stroke-width:0.226634;stroke-linejoin:round"
         d="M 3.9293931,2.333239 2.5899634,3.4168779 A 0.37385072,0.37385072 160.51305 0 1 2.3548239,3.5000849 H 0.0645244 A 0.13229167,0.13229167 135 0 0 -0.06776727,3.6323766 V 6.3676101 A 0.13229167,0.13229167 45 0 0 0.0645244,6.4999018 h 2.2897827 a 0.37394794,0.37394794 19.482266 0 1 0.2351532,0.08319 L 3.9293794,7.6667645 A 0.06315016,0.06315016 154.48227 0 0 4.0322409,7.617663 V 2.3823237 A 0.06313688,0.06313688 25.513049 0 0 3.9293931,2.333239 Z"
         sodipodi:nodetypes="ccccccc"
         inkscape:path-effect="#path-effect3347"
         inkscape:original-d="M 4.0322409,2.250032 2.4871156,3.5000849 H -0.06776727 V 6.4999018 H 2.4865988 l 1.5456421,1.2500529 c 0,-1.8333076 0,-3.6666151 0,-5.4999227 z" />
      <path
         style="fill:#000000;stroke:none;stroke-width:0.252872;stroke-linejoin:round;stroke-dasharray:none;stroke-opacity:1"
         d="m 7.0796907,2.6306871 c 0.064666,0.3836919 0.2485794,1.5247979 0.2746073,2.2392534 0.00262,0.071801 0.00352,0.1893032 0.00164,0.2623385 C 7.3375675,5.8486555 7.146753,6.9916943 7.0800984,7.3721624 7.0677223,7.442806 6.9980421,7.5 6.9249794,7.5 H 6.6895628 C 6.6165001,7.5 6.567567,7.4416744 6.5797919,7.3696446 6.6450925,6.9848898 6.8313787,5.8369062 6.8548409,5.130234 6.857228,5.0583349 6.857488,4.940755 6.8552674,4.8677293 6.8337326,4.1595399 6.6452728,3.0103601 6.5796696,2.6281609 6.5675139,2.5573424 6.6165001,2.5 6.6895628,2.5 h 0.2354166 c 0.073063,0 0.142541,0.058475 0.1547113,0.1306871 z"
         id="path3479-83"
         sodipodi:nodetypes="csccscc"
         inkscape:path-effect="#path-effect3580"
         inkscape:original-d="m 7.0572711,2.5 c 0,0 0.293649,1.6607042 0.3,2.5 0.00635,0.8392956 -0.3,2.5 -0.3,2.5 h -0.5 c 0,0 0.2982038,-1.6745476 0.3,-2.5 0.0018,-0.8254523 -0.3,-2.5 -0.3,-2.5 z" />
      <path
         style="fill:#000000;stroke:none;stroke-width:0.195874;stroke-linejoin:round;stroke-dasharray:none;stroke-opacity:1"
         d="m 4.8716144,3.6272821 c 0.070606,0.2557471 0.2232743,0.8418323 0.2572748,1.2436832 0.00602,0.071106 0.0075,0.188357 0.00235,0.2612179 C 5.1027255,5.5361426 4.9443487,6.1240408 4.8718439,6.3768818 4.8523049,6.445019 4.7763587,6.5 4.703296,6.5 H 4.4678794 C 4.3948167,6.5 4.3522807,6.4431727 4.3718476,6.3727841 4.4431825,6.116169 4.5976254,5.5270963 4.6296929,5.128832 c 0.00572,-0.070997 0.00613,-0.1881535 4.8e-4,-0.2609776 C 4.5991148,4.4678081 4.4426902,3.8777103 4.3712591,3.623699 4.3520113,3.5552529 4.3948167,3.5 4.4678794,3.5 H 4.703296 c 0.073063,0 0.148876,0.056859 0.1683184,0.1272821 z"
         id="path3479-8"
         sodipodi:nodetypes="csccscc"
         inkscape:path-effect="#path-effect3582"
         inkscape:original-d="m 4.8355877,3.5 c 0,0 0.293649,0.9964226 0.3,1.5 0.00635,0.5035774 -0.3,1.5 -0.3,1.5 h -0.5 c 0,0 0.2982038,-1.0047285 0.3,-1.5 0.0018,-0.4952713 -0.3,-1.5 -0.3,-1.5 z" />
      <path
         style="fill:#000000;stroke:none;stroke-width:0.226176;stroke-linejoin:round;stroke-dasharray:none;stroke-opacity:1"
         d="m 5.9716483,3.1293674 c 0.067738,0.3237349 0.2386904,1.1828189 0.2681262,1.7407549 0.00378,0.071668 0.0049,0.1891404 0.00196,0.2621361 C 6.2191162,5.6920878 6.041815,6.5529929 5.9720666,6.8738016 5.956898,6.9435699 5.8847893,7 5.8117266,7 H 5.57631 C 5.5032473,7 5.4567714,6.9421618 5.4718336,6.8706723 5.5402854,6.5457798 5.7133255,5.6819226 5.7404306,5.129715 5.7439441,5.0581342 5.744266,4.940736 5.7409018,4.8677579 5.7153694,4.3138999 5.540244,3.4489 5.4715674,3.1266171 5.4566522,3.0566239 5.5032473,3 5.57631,3 h 0.2354166 c 0.073063,0 0.1449589,0.057857 0.1599217,0.1293674 z"
         id="path3479-3"
         sodipodi:nodetypes="csccscc"
         inkscape:path-effect="#path-effect3525"
         inkscape:original-d="m 5.9440183,3 c 0,0 0.293649,1.3285634 0.3,2 0.00635,0.6714365 -0.3,2 -0.3,2 h -0.5 c 0,0 0.2982038,-1.3396381 0.3,-2 0.0018,-0.6603618 -0.3,-2 -0.3,-2 z" />
    </g>
  </g>
</svg>
