<?xml version="1.0" encoding="UTF-8" standalone="no"?>
<!-- Created with Inkscape (http://www.inkscape.org/) -->

<svg
   width="8mm"
   height="5.4608221mm"
   viewBox="0 0 8 5.4608221"
   version="1.1"
   id="svg5"
   xml:space="preserve"
   inkscape:version="1.2.1 (9c6d41e410, 2022-07-14)"
   sodipodi:docname="whole_note_icon.svg"
   xmlns:inkscape="http://www.inkscape.org/namespaces/inkscape"
   xmlns:sodipodi="http://sodipodi.sourceforge.net/DTD/sodipodi-0.dtd"
   xmlns="http://www.w3.org/2000/svg"
   xmlns:svg="http://www.w3.org/2000/svg"><sodipodi:namedview
     id="namedview7"
     pagecolor="#ffffff"
     bordercolor="#000000"
     borderopacity="0.25"
     inkscape:showpageshadow="2"
     inkscape:pageopacity="0.0"
     inkscape:pagecheckerboard="0"
     inkscape:deskcolor="#d1d1d1"
     inkscape:document-units="mm"
     showgrid="false"
     inkscape:zoom="8.6174175"
     inkscape:cx="34.871236"
     inkscape:cy="30.519584"
     inkscape:window-width="1920"
     inkscape:window-height="1009"
     inkscape:window-x="-8"
     inkscape:window-y="1016"
     inkscape:window-maximized="1"
     inkscape:current-layer="layer1" /><defs
     id="defs2" /><g
     inkscape:label="Layer 1"
     inkscape:groupmode="layer"
     id="layer1"
     transform="translate(-1,-2.2695888)"><path
       d="M 4.9999998,2.2695889 A 3.9999999,2.7304122 0 0 0 1,5 3.9999999,2.7304122 0 0 0 4.9999998,7.7304112 3.9999999,2.7304122 0 0 0 9,5 3.9999999,2.7304122 0 0 0 4.9999998,2.2695889 Z M 4.1915589,2.7989129 A 2.536063,1.5503498 51.273461 0 1 6.0488128,3.8415716 2.536063,1.5503498 51.273461 0 1 6.6970192,6.8743545 2.536063,1.5503498 51.273461 0 1 3.9511047,6.1584284 2.536063,1.5503498 51.273461 0 1 3.3028956,3.1256455 2.536063,1.5503498 51.273461 0 1 4.1915162,2.7989347 Z"
       id="path134"
       style="stroke-width:0.00444898" /></g></svg>
